<?xml version="1.0" encoding="UTF-8"?>
<svg width="842px" height="510px" viewBox="0 0 842 510" version="1.1" xmlns="http://www.w3.org/2000/svg" xmlns:xlink="http://www.w3.org/1999/xlink">
    <title>MGMT</title>
    <g id="Page-1" stroke="none" stroke-width="1" fill="none" fill-rule="evenodd" fill-opacity="0.857927229">
        <g id="Group-2" transform="translate(-21.442639, -155.000000)" fill="#FFFFFF" fill-rule="nonzero">
            <path d="M76.7426386,665 L76.7426386,373.8 L117.342639,625.1 L146.742639,625.1 L187.342639,373.8 L187.342639,665 L242.642639,665 L242.642639,155.4 L177.542639,155.4 L132.042639,434.7 L86.5426386,155.4 L21.4426386,155.4 L21.4426386,665 L76.7426386,665 Z M381.942639,665 C396.875972,665 408.542639,660.8 416.942639,652.4 C425.342639,644 429.542639,632.333333 429.542639,617.4 L429.542639,617.4 L429.542639,384.3 L360.942639,384.3 L360.942639,434.7 L374.242639,434.7 L374.242639,615.3 L339.942639,615.3 L339.942639,205.1 L374.242639,205.1 L374.242639,320.6 L429.542639,320.6 L429.542639,203 C429.542639,189 425.342639,177.566667 416.942639,168.7 C408.542639,159.833333 396.875972,155.4 381.942639,155.4 L381.942639,155.4 L332.942639,155.4 C318.475972,155.4 306.809305,159.833333 297.942639,168.7 C289.075972,177.566667 284.642639,189 284.642639,203 L284.642639,203 L284.642639,617.4 C284.642639,632.333333 289.075972,644 297.942639,652.4 C306.809305,660.8 318.475972,665 332.942639,665 L332.942639,665 L381.942639,665 Z M524.742639,665 L524.742639,373.8 L565.342639,625.1 L594.742639,625.1 L635.342639,373.8 L635.342639,665 L690.642639,665 L690.642639,155.4 L625.542639,155.4 L580.042639,434.7 L534.542639,155.4 L469.442639,155.4 L469.442639,665 L524.742639,665 Z M822.242639,665 L822.242639,205.1 L862.842639,205.1 L862.842639,155.4 L722.142639,155.4 L722.142639,205.1 L762.742639,205.1 L762.742639,665 L822.242639,665 Z" id="MGMT"></path>
        </g>
    </g>
</svg>